<svg width="12" height="12" xmlns="http://www.w3.org/2000/svg">
  <symbol id="block" viewBox="0 0 12 12">
    <path d="M6.00006 0.604309C3.02068 0.604309 0.60437 3.01931 0.60437 6C0.60437 8.98068 3.02068 11.3957 6.00006 11.3957C8.98031 11.3957 11.3957 8.98068 11.3957 6C11.3957 3.01931 8.98075 0.604309 6.00006 0.604309ZM6.00006 1.91681C6.80943 1.91681 7.56281 2.15656 8.19806 2.56431L2.56437 8.198C2.14159 7.54287 1.91677 6.7797 1.91687 6C1.91687 3.74862 3.74868 1.91681 6.00006 1.91681ZM6.00006 10.0832C5.22039 10.0831 4.45726 9.85829 3.80206 9.43568L9.43531 3.802C9.85809 4.45712 10.0829 5.2203 10.0828 6C10.0828 8.25137 8.25143 10.0832 6.00006 10.0832Z" fill="currentColor"/>
  </symbol>
</svg>

