<svg width="14" height="14" viewBox="0 0 14 14" fill="none" xmlns="http://www.w3.org/2000/svg">
<path d="M9.33333 0.583191V1.74986H4.66667V0.583191H3.5V1.74986H2.91667C2.26917 1.74986 1.75 2.26902 1.75 2.91652V11.0832C1.75 11.3926 1.87292 11.6894 2.09171 11.9081C2.3105 12.1269 2.60725 12.2499 2.91667 12.2499H11.0833C11.3928 12.2499 11.6895 12.1269 11.9083 11.9081C12.1271 11.6894 12.25 11.3926 12.25 11.0832V2.91652C12.25 2.60711 12.1271 2.31036 11.9083 2.09157C11.6895 1.87277 11.3928 1.74986 11.0833 1.74986H10.5V0.583191" fill="#8A94AD"/>
<path d="M3.5 7H6.125V9.625H3.5V7Z" fill="white"/>
<path d="M1.75 4.375H12.25V5.25H1.75V4.375Z" fill="white"/>
</svg>
