<svg width="13" height="12" viewBox="0 0 13 12" fill="none" xmlns="http://www.w3.org/2000/svg">
<path d="M7.74996 2.66666C6.46079 2.66666 5.41663 3.71083 5.41663 4.99999V9.66666H1.33329C1.02387 9.66666 0.727127 9.54375 0.508335 9.32495C0.289542 9.10616 0.166626 8.80941 0.166626 8.49999V1.49999C0.166626 0.852495 0.685793 0.333328 1.33329 0.333328H4.83329L5.99996 1.49999H10.6666C10.976 1.49999 11.2728 1.62291 11.4916 1.8417C11.7104 2.0605 11.8333 2.35724 11.8333 2.66666V3.93249L10.9058 3.01083L10.5675 2.66666H7.74996ZM12.4166 6.16666V10.25C12.4166 10.8975 11.8975 11.4167 11.25 11.4167H7.74996C7.44054 11.4167 7.14379 11.2937 6.925 11.075C6.70621 10.8562 6.58329 10.5594 6.58329 10.25V4.99999C6.58329 4.35833 7.10829 3.83333 7.74996 3.83333H10.0833L12.4166 6.16666ZM11.25 6.65083L9.59913 4.99999H9.49996V6.74999H11.25V6.65083Z" fill="#2D8DFE"/>
</svg>
