<svg width="14" height="14"  xmlns="http://www.w3.org/2000/svg">
  <symbol id="gear" viewBox="0 0 14 14">
    <path d="M13.3016 5.57143H12.4359C12.3059 5.09524 12.1095 4.61019 11.8571 4.17843L12.4944 3.54219C12.7733 3.26329 12.7734 2.81152 12.4944 2.53257L11.5069 1.54529C11.373 1.41133 11.1913 1.33619 11.0019 1.33619C10.8125 1.33619 10.6308 1.41148 10.4969 1.54548L9.85323 2.17662C9.40999 1.91381 8.92861 1.71014 8.4048 1.57705V0.714286C8.4048 0.319809 8.10999 0 7.71547 0H6.31895C5.92442 0 5.59523 0.319809 5.59523 0.714286V1.57705C5.11904 1.70486 4.64552 1.89748 4.21695 2.14529L3.62704 1.553C3.34814 1.2741 2.89699 1.2741 2.61809 1.553L1.63114 2.54052C1.35218 2.81943 1.35247 3.27171 1.63142 3.55067L2.20842 4.12548C1.9409 4.57181 1.73385 5.04762 1.59842 5.57143H0.753947C0.35947 5.57143 0.0238037 5.89533 0.0238037 6.28981V7.68638C0.0238037 8.08086 0.35947 8.38095 0.753947 8.38095H1.59266C1.72571 8.90476 1.93047 9.391 2.19514 9.83733L1.62423 10.4131C1.34528 10.692 1.34528 11.1468 1.62423 11.4258L2.61171 12.4145C2.75118 12.554 2.93399 12.6243 3.11676 12.6243C3.29952 12.6243 3.48237 12.5549 3.6218 12.4154L4.19418 11.8385C4.62909 12.0927 5.07137 12.2902 5.59518 12.4203V13.2619C5.59518 13.6564 5.92437 14 6.31885 14H7.71537C8.10985 14 8.40471 13.6564 8.40471 13.2619V12.4203C8.92852 12.285 9.42642 12.0767 9.87585 11.8073L10.498 12.4232C10.6375 12.5627 10.8234 12.6324 11.0062 12.6324C11.189 12.6324 11.3734 12.5627 11.5128 12.4232L12.5011 11.4357C12.78 11.1568 12.7805 10.7045 12.5015 10.4256L11.8703 9.78438C12.1199 9.35271 12.3139 8.90481 12.4416 8.381H13.3015C13.696 8.381 13.9761 8.0809 13.9761 7.68643V6.28986C13.9762 5.89533 13.696 5.57143 13.3016 5.57143ZM9.09599 6.99871C9.09599 8.14495 8.16347 9.07748 7.01723 9.07748C5.87099 9.07748 4.93847 8.14495 4.93847 6.99871C4.93847 5.85248 5.87099 4.91995 7.01723 4.91995C8.16347 4.91995 9.09599 5.85243 9.09599 6.99871Z" fill="currentColor"/>
  </symbol>
</svg>
