<svg width="14" height="14"  fill="none" xmlns="http://www.w3.org/2000/svg">
  <symbol id="man" viewBox="0 0 14 14">
    <path d="M7.00003 7.51853C9.07622 7.51853 10.7593 5.83544 10.7593 3.75927C10.7593 1.68311 9.07622 0 7.00003 0C4.92384 0 3.24078 1.68309 3.24078 3.75925C3.24078 5.83542 4.92384 7.51853 7.00003 7.51853ZM13.3519 11.4074V12.6466C13.3519 12.8302 13.2166 13.0437 13.0489 13.1184C12.3986 13.4077 10.6247 14 7.00003 14C3.37533 14 1.60152 13.4077 0.951207 13.1184C0.783412 13.0437 0.648193 12.8302 0.648193 12.6466L0.648193 11.4074C0.648193 9.55049 2.06201 8.01001 3.86604 7.80372C3.92085 7.79743 4.00213 7.8209 4.04683 7.85325C4.87862 8.45543 5.89696 8.81483 7.00003 8.81483C8.1031 8.81483 9.12149 8.45543 9.95323 7.85325C9.99795 7.8209 10.0792 7.79743 10.134 7.80372C11.938 8.01001 13.3519 9.55049 13.3519 11.4074Z" fill="currentColor"/>
  </symbol>
</svg>
