<svg width="12" height="12" viewBox="0 0 12 12" fill="none" xmlns="http://www.w3.org/2000/svg">
<path d="M11.25 11.25L8.71658 8.71658M8.71658 8.71658C9.14993 8.28323 9.49368 7.76877 9.72821 7.20257C9.96274 6.63637 10.0835 6.02952 10.0835 5.41666C10.0835 4.80381 9.96274 4.19696 9.72821 3.63076C9.49369 3.06456 9.14993 2.5501 8.71658 2.11675C8.28323 1.6834 7.76877 1.33964 7.20257 1.10512C6.63637 0.870588 6.02952 0.749878 5.41666 0.749878C4.80381 0.749878 4.19696 0.870588 3.63076 1.10512C3.06456 1.33964 2.5501 1.6834 2.11675 2.11675C1.24156 2.99194 0.749878 4.17896 0.749878 5.41666C0.749878 6.65437 1.24156 7.84139 2.11675 8.71658C2.99194 9.59177 4.17896 10.0835 5.41666 10.0835C6.65437 10.0835 7.84139 9.59177 8.71658 8.71658Z" stroke="#8A94AD" stroke-width="1.5" stroke-linecap="round" stroke-linejoin="round"/>
</svg>
